<?xml version="1.0" encoding="utf-8"?>
<!-- Generator: Adobe Illustrator 21.0.2, SVG Export Plug-In . SVG Version: 6.00 Build 0)  -->
<svg version="1.1" id="Layer_1" xmlns="http://www.w3.org/2000/svg" xmlns:xlink="http://www.w3.org/1999/xlink" x="0px" y="0px"
	 viewBox="0 0 841.9 595.3" style="enable-background:new 0 0 841.9 595.3;" xml:space="preserve">
<style type="text/css">
	.st0{fill:#2C2C2C;}
</style>
<g>
	<path class="st0" d="M383.3,81c-6.3-4-6.2-7.4-0.4-11.4c3.6-2.5,6.6-5.9,10.1-8.6c1.6-1.3,3.8-2.6,5.7-2.6
		c15.9,0.1,31.9-0.1,47.8,1.1c15,1.2,29.8,4,44.7,6.3c1.2,0.2,2.3,1.7,3.4,2.6c-1.5,0.4-2.9,0.9-4.4,1.1c-4.4,0.4-8.9,0.3-13.2,1.1
		c-1.9,0.4-3.5,2.6-5.2,4c0.3,0.4,0.6,0.9,0.9,1.3c3-1.1,6-2.6,9.1-3.1c10.6-1.6,19,4.3,20.9,15.1c1.6,9.2,2.1,18.7-6.1,25.2
		c-3.4,2.7-8.4,3.3-12.7,4.9c-1.2,0.5-2.4,1-3.6,1.6c1,1,1.8,2.8,2.9,2.9c3.3,0.5,6.8,0.6,10.2,0.4c1.7-0.1,3.4-1,5.5-1.7
		c0.2,1.1,0.7,2.1,0.5,3c-1.4,7.7,2.4,13.1,7.5,18c5,4.8,7.2,19,3.6,23.9c-8.9-5.4-17.4-12.5-30.1-9.5c1.7,2.2,2.8,4.5,4.6,5.8
		c3.6,2.6,7.4,5.3,11.6,6.7c16.3,5.2,20.8,25.4,18.2,37.8c-0.2,1.2-1.2,2.1-2.2,3.7c-6.5-11.4-15-18.7-29.4-18.5
		c1.3,3,1.9,5.5,3.4,7.5c3,4.1,6.2,8.2,9.9,11.7c7.9,7.5,11.3,17,11.3,27.3c0,6.1-2.8,12.3-4.6,19.7c-5.7-7.7-9.5-14.5-14.9-19.8
		c-5.4-5.4-12.3-9.2-18.5-13.8c-0.5,0.4-1.1,0.8-1.6,1.2c1.4,3.4,2.3,7,4.3,10c6,9.2,11.3,18.8,11.3,29.9c0.1,10.8-1.3,21.6-11,30.1
		c-2.9-6.3-5.2-12.4-8.6-17.9c-3.3-5.5-7.8-10.3-12.4-15.1c7.3,21.5,9.1,42.2-2.8,62.1c-7.6-8.8-15-17.3-22.4-25.8
		c-0.4,0.1-0.9,0.3-1.3,0.4c-0.1,1.1-0.4,2.3-0.3,3.4c0.7,9.5-1.1,18.8-6.3,26.6c-4.7,7.1-10.9,13.2-16.7,19.5
		c-2,2.2-4.9,2.3-5.5-1.3c-2.2-12.1-8-22.8-13.4-33.6c-0.4-0.9-0.7-1.8-1.2-3.5c-10.8,15.4-18.5,32.8-36.6,41.6
		c-2.1-11.5-4.1-22.3-6.1-33.1c-8.7,7.2-17.3,14.4-25.9,21.6c-0.7-0.4-1.4-0.7-2.1-1.1c0.4-12.8-5.2-25.3-0.3-38.4
		c-0.4-0.3-0.7-0.7-1.1-1c-1.9,0.9-3.9,1.6-5.6,2.8c-10.3,7.4-21.7,10.1-34.2,8.7c-4.3-0.5-4.1-2.8-2.9-6
		c5.2-13.9,14.4-24.1,28.1-30c0.4-0.2,0.8-0.6,1.6-1.2c-4.9-3.5-10.3-4.1-15.3-3.4c-5,0.7-10,2.7-14.5,5c-4.6,2.3-8.8,5.6-14,9
		c-0.2-2.3-0.7-4.5-0.5-6.5c1.6-15.2,9.8-26.4,22.1-34.3c7.3-4.7,15.4-8.4,23.7-11c5.6-1.8,12.1-0.9,18.2-1c2.1,0,4.1,0.6,7,1.1
		c-2.9-8.4-9.1-11.2-16.1-11.9c-6.8-0.7-13.7-0.2-22-0.2c9.6-9.8,18.6-18.2,30.9-21.6c13-3.5,24.3,1.8,35.5,8.1
		c-1.1-10.9-7.1-18.5-15.6-25.4c9.7-4.4,19.5-6.5,29.7-5.3c7.7,0.9,15.2,3.1,22.9,4.5c1.9,0.3,3.9-0.4,5.9-0.7
		c-0.8-2-1.1-4.9-2.6-5.8c-4.6-2.6-9.6-4.3-14.5-6.5c-1.2-0.5-2.2-1.6-3.2-2.5c1.2-0.9,2.5-2.8,3.6-2.7c6.7,0.4,13.4,1.2,20.1,2
		c1.3,0.2,2.5,1.1,3.7,1.4c7.3,1.6,12-3.5,10.2-10.8c-1.6-6.4-3.2-12.8-4.4-19.3c-1.9-9.9-7.1-13.3-16.6-10.2
		c-3.3,1.1-6.5,2.6-9.5,4.4c-6.1,3.6-8.7,3.4-13.6-1.6c-2.1-2.1-3.8-4.6-5.8-6.7c-3.3-3.6-3.2-7.3-0.9-11.4c0.7-1.2,1.1-3.5,0.4-4.6
		c-2.4-4.3-1.8-7.4,2.6-9.6c1-0.5,2.2-1,3.3-1.1C376.5,95.4,380.2,88.8,383.3,81z M434.7,93.9c0.1-0.6,0.2-1.2,0.3-1.9
		c-2.5-1-5.2-1.6-7.4-3.1c-6.2-4.1-12.1-8.7-18.4-12.6c-2.1-1.3-5.5-2-7.8-1.3c-4.6,1.4-8.9,3.9-13.6,6.1c1.3,2,2.9,4.4,4.8,7.2
		c1.7-1.3,3-2.5,4.5-3.4c2.9-1.7,6.1-2.9,8.6,0.1c2.4,2.8,2.9,6.6,0.3,9.5c-2.3,2.6-5.4,2.6-8.5,0.5c-1.3-0.9-3.2-0.9-4.8-1.4
		c0.6,2.1,1.7,2.9,2.6,3.9c7.8,8.4,8.6,9.7,16.2-1.7c0.9-1.4,3-2.9,4.5-3c3.4-0.1,6.9,0.8,10.3,1.1
		C429.1,94.1,431.9,93.9,434.7,93.9z M403.3,174.7c0.1,0.6,0.2,1.3,0.3,1.9c4.8,1.2,9.5,2.7,14.4,3.5c7.9,1.3,12.8-4.4,10.5-12.2
		c-3-10.1-6.3-20.2-9.7-30.2c-0.3-0.8-1.7-1.2-2.5-1.8c-0.5,0.8-1.3,1.5-1.4,2.3c-0.1,1.6,0.2,3.3,0.5,4.9c1.6,7.5,3.4,14.9,5,22.4
		c1.4,6.6-0.2,8.3-7,8.3C410.1,173.8,406.7,174.4,403.3,174.7z M495.7,95.2c-0.5-2.9-0.8-5.9-1.6-8.8c-1.3-4.2-5-6.3-8.8-5.9
		c-3.8,0.4-7.6,2.3-11.1,4.1c-0.8,0.4-0.4,3.2-0.5,4.9c1.3-0.4,2.7-0.6,3.8-1.2c2.6-1.6,5.2-3.5,8.1-0.8c3.3,3.1,4.9,7.4,3,11.3
		c-1.6,3.2-5.2,5.5-8.1,8c-1.1,0.9-2.8,1.2-4.2,1.8c1.6,1.2,3,2.8,4.8,3.4c1.4,0.5,3.2-0.1,4.8-0.6
		C494,108.9,495.4,102.5,495.7,95.2z"/>
	<path class="st0" d="M433,317.2c1.6,2.5,3.2,4.6,4.4,7c1.7,3.6,3.2,7.3,4.5,11c1.2,3.5,2.9,3.7,5.4,1.3
		c8.2-7.6,13.4-16.8,16.4-27.4c0.6-2,1.4-4,2.4-6.6c4.2,4.2,7.7,3,10.4-0.5c7.1,5.2,13.3,11.4,20.8,14.9
		c10.9,5.1,22.7,8.3,34.2,12.1c3,1,6.1,1.5,9.2,1.8c3.3,0.2,7.6,1.1,9.8-0.5c5-3.8,9.7-8.6,13.2-13.8c4.5-6.6,3.9-14.6,3.3-22.2
		c-0.8-9.2-6.8-15.7-11.9-22.6c-6.5-8.8-14.1-16.8-20.3-25.8c-5.5-8.1-9.4-17.1-11.3-26.9c-3.3-16.8,3.6-33.8,19.2-40.5
		c8.2-3.5,18.2-4.9,27.2-4.1c13.4,1.1,26.7,4.4,39.9,7.7c15,3.7,29.7,8.6,45.4,8c13.7-0.5,26.3-3.6,36.5-13.4c0.5-0.5,1-0.9,1.6-1.2
		c0.3-0.2,0.6-0.2,2-0.5c1.4,4.7,2.4,9.7,4.3,14.3c3,7.4-0.4,11.4-5.9,15.7c-16.4,12.8-34.8,13.4-53.6,8.8
		c-12.7-3.1-24.9-8.2-37.4-12c-10.1-3-20.4-6-30.8-7.9c-7.8-1.4-16-1.6-22.9,3.8c-6.8,5.3-10.6,18.1-7.4,25.9c0.5-0.8,1.1-1.3,1.3-2
		c3.6-11,13.7-18.6,25.2-19.6c12.1-1,23.2,2.9,33.8,7.4c18.4,7.9,36.7,16.1,56.9,17.3c14.8,0.9,28.7-3.2,39.9-13.8
		c0.9-0.9,1.6-2.1,2.6-3.6c6.8,18.9-2.8,40.1-24.1,42.8c-12.7,1.6-24.7,0.4-36.8-2.6c-5.6-1.4-11.1-3.3-16.3-5.8
		c-9.3-4.4-18.3-9.5-27.6-13.9c-5.5-2.6-11.3-4.8-17.3-6.2c-6.7-1.6-13.1-0.1-18.1,5.3c-7.1,7.6-8.5,16.3-3.9,25.3
		c3.4,6.8,8.5,12.7,12.3,19.3c2.7,4.6,4.4,9.6,6.7,14.4c0.6,1.2,1.3,2.4,2.6,4.5c4.8-8,7.6-15.8,5.9-23.6
		c-2.4-11.3-6.6-22.2-10-33.2c-0.5-1.5-0.7-3.1-1.1-4.7c10.2-1,13.3,0.7,17.1,10.1c7.1,17.4,8.9,35.3,2.3,53
		c-6.2,16.5-15.8,31-30.2,41.9c-2.8,2.1-3,3.9-0.2,6.4c3,2.7,6.5,5.5,8.2,9c6.1,12.7,9.1,25.9,0.2,38.8c-2.9,4.2-1.1,6.4,1.9,8.7
		c11.1,8.3,22.7,8.4,34.5,1.8c9.3-5.2,18.9-9,29.6-9.3c1.3,0,2.6,0.1,5.2,0.3c-2.3,8.5-4.4,16.4-6.9,25.6c5.1-2.2,9.4-4.1,14.8-6.5
		c-0.9,9.6-5.5,16.1-10.2,22.4c-4.6,6.2-9.2,12.4-13.9,18.6c0.3,0.5,0.6,1.1,0.9,1.6c4.9-1.3,9.9-2.5,16-4.1
		c-3.2,13.8-11.4,22.7-22,29.9c0.1,0.5,0.2,0.9,0.3,1.4c2.4-0.5,4.9-0.9,7.3-1.4c1.5-0.3,2.9-0.9,4.3-1.1c1.2-0.2,2.5-0.2,3.7-0.2
		c0.1,1.4,0.6,3,0.1,4.2c-3.9,9-9.2,17.5-18.5,21.2c-8.5,3.4-12.9,10-17.8,16.7c-1.7,2.4-3.2,4.9-4.8,7.4c0.2,0.5,0.4,1,0.6,1.6
		c2.4-0.5,5.3-0.3,7.2-1.6c10.5-7.2,19.9-3.4,21.9,9.3c0.2,1,0,2.5-0.6,3.3c-4.1,5.3-9.5,8.9-16.2,9.9c-4.1,0.6-7.5-1.5-9.4-5.3
		c-3.6-7.2-9.9-4.4-15.4-4.2c-5.2,0.2-5.5,5.1-7.1,8.5c-0.4,0.9,0,2.3,0.3,3.4c2.8,9.7-0.5,16.8-9.5,20.8c-1.2,0.5-2.2,1.9-2.9,3.2
		c-1.7,2.8-3.5,3.2-6.1,1.1c-7.7-6.3-6.8-19,1.8-23.8c3.5-2,5.3-4.8,4.2-9.8c-5.4,2.3-10.5,4.5-15.6,6.6c-1.4,0.6-2.7,1.4-4.1,1.6
		c-3.1,0.6-4.9,2.2-5.5,5.5c-0.7,4-2.5,7.4-6.7,9.3c-1.2,0.6-2.1,2.8-2.4,4.3c-0.7,3.5-2.2,4.2-5.1,2.2c-3-2.1-6.2-4-5.1-8.6
		c0.2-0.8-0.5-2.2-1.2-2.7c-3.2-2.3-4.8-5.3-3.1-9c1.9-4.3,4.2-8.5,9.7-9c2-0.2,4,0.3,6,0.2c4.2-0.2,8.7,0.3,12.5-1
		c6.4-2.3,12.5-5.8,19-9c-5.2-5.3-9.2-5.6-13.6-1.5c-3,2.8-6.1,3.4-10,2.4c-7.2-1.7-7.2-1.6-14.6,1.7c0.6-3.9,0.1-7.4,1.6-9.8
		c3.1-4.8,6.7-9.4,10.9-13.3c4-3.7,9.4-2.7,15,1.5c9.7,7.2,24.5,3.3,30.4-7c10.7-18.8,14.3-39.5,17.2-60.4c0.2-1.5-0.3-3.3-0.8-4.8
		c-0.9-2.9-2.4-3.9-5.5-1.9c-7.9,5-16.5,8.4-25.8,9.7c-1.6,0.2-3.2,0-5.9,0c6.9,9.4,12.4,18.6,6.5,29.9c-3,5.9-8.2,9.2-15,12.8
		c1-3.1,1.7-5,2.1-7c2.2-9.7-3.7-15.5-10-21.3c-3.4-3.1-7.2-6.2-9.6-10c-2.5-4.2-3.6-9.3-5.6-14.9c-10.8-2.3-13.4-12.1-14.9-22.4
		c-1.1-7.1-1.5-14.2-2.3-21.3c-0.6-5-3.1-8.1-8.1-10.1c-11.1-4.2-21.7-10.2-33.7-11.3c-11.1-1-22.2-1.5-33.3-1.9
		c-15.6-0.6-31.2-0.3-46.7-1.4c-10.4-0.7-19.9-5-28-11.8c-4.8-4.1-4.3-5.3-0.2-9.7c5.2-5.5,9.7-11.7,14.3-17.8
		c2.7-3.6,3.8-3.7,5.7,0.3c1.5,3.3,2.5,6.8,3.7,10.3c1.7,5,3.1,10.1,5,15.1c1.1,3,3,3.7,6.3,2c16.2-8.6,28.1-20.8,32.9-39
		c0.2-0.8,0.5-1.6,0.9-2.3C431.5,318.5,431.9,318.2,433,317.2z"/>
	<path class="st0" d="M374.6,470.7c-0.2-10.4,1.3-20.3,4.6-30.1c3.4-10,14-18,24.6-17.9c2.8,0,4.6-0.7,5.6-3.7
		c3-8.8,8.8-14.3,18.3-16.4c13.3-3,26.7-4.7,40.4-4.9c7.2-0.1,14.3-0.6,20.9,2.9c2.4,1.3,4.5,3.2,6.6,5.1c3.4,3.1,6.9,6.1,9.9,9.5
		c1.9,2,3.2,4.6,4.4,7.1c0.8,1.6,0.9,3.5,1.6,5.2c1.7,4.3,1.1,5.3-3.6,5.4c-10.3,0-20.6,0.6-30.4,4.5c-3.7,1.5-7.3,3.4-10.5,5.6
		c-3.6,2.6-2.4,13.7,1.8,15.2c5.1,1.8,10.5,2.9,15.9,3.7c5,0.7,7.1,2.9,9.1,7.6c1.2,2.9,4.7,5,7.4,7.1c1.6,1.3,3.7,2,6.9,3.6
		c-11.4,6.9-23,7.4-34.6,8.6c6.5,5.6,14,8.4,23.3,9.6c-6.3,6.8-13.6,11-21.5,10.9c-7.8-0.1-15.5-3-23.5-3.7
		c7.5,4.4,15.1,8.7,22.6,13.1c0.1,0.6,0.1,1.1,0.2,1.7c-2.7,0.9-5.5,2.7-8.2,2.5c-8.7-0.7-17.4-2.1-26-3.4c-5.3-0.8-10.6-1.7-16-2
		c7.3,4.9,14.5,9.7,21.8,14.6c-0.3,0.8-0.5,1.5-0.8,2.3c-15.1,4.7-29.9-1.7-44.8-3.4c-0.1,0.5-0.3,1.1-0.4,1.6
		c4.1,4,8.3,7.9,12.8,12.3c-6.6,4.1-13.5,3.8-20,2.7c-5.8-1-11.5-3.1-17.1-5.2c-5.1-1.9-14.4,2.7-15.8,8.2
		c-2.3,8.8-2.5,9.2-11.2,6.1c-10.1-3.6-20-8-29.9-12.2c-1-0.4-1.7-1.5-2.8-2.6c2.4-1.4,4.6-2.5,6.6-3.9c3.2-2.3,2.9-4.3-0.6-5.7
		c-5.4-2.2-10.6-3.5-16.8-2.4c-3.9,0.7-8.7-1.2-12.5-3.1c-5.2-2.6-8.1-9.6-16.1-6.8c-0.1-0.6-0.3-1.2-0.4-1.9
		c2.4-2.5,4.5-5.4,7.2-7.4c3.1-2.3,6.9-3.7,10.3-5.8c7.5-4.5,17.2-0.5,19.2,8.1c1,4.2,2.9,7.1,7.5,8.2c6.7,1.7,13.3,6,19.8,5.7
		c9.6-0.5,19.3-3.2,28.4-6.6c15.6-5.7,30.4-13.4,43.5-23.8c7.9-6.3,15.6-12.9,23.3-19.5c1-0.8,1.6-2,2.4-2.9
		c-6.4-6.6-6.4-6.6-13.7-2.2c-8.2,4.9-21.1-1.9-22.3-11.9c-0.2-2,0.2-4-0.1-5.9c-0.2-1.4-1-2.7-1.6-4.1c-1.1,0.9-2.6,1.5-3.2,2.6
		c-4.6,9-12.4,14-21.2,17.9C375.8,471,375.2,470.8,374.6,470.7z"/>
	<path class="st0" d="M674.7,132.3c1.9,5.9,3.7,10.8,5,15.7c1.4,5.3-4.3,14-11.3,17.9c-8.3,4.6-17.2,5.6-26.5,3.9
		c-14-2.5-26.8-7.4-39-15.3c-11-7.2-23.4-12.4-35.4-17.9c-5.2-2.3-10.5,0.7-14,4.4c-3,3.1-3,7.9-1,12.2c2.1,4.6,3.9,9.4,6,14.6
		c-4.7,0.6-8.8,1.4-12.9,1.6c-1,0.1-2.6-1.4-3.1-2.5c-6.1-12.9-12-25.9-18.2-38.8c-5.4-11.3-8.5-23.2-7.8-35.6
		c0.9-15.1,12.9-33.1,28-33.4c6.7-0.1,13.9,1.8,20.2,4.4c16.3,6.6,32.2,14.3,48.3,21.2c8.6,3.7,17.5,6.5,27,4.3
		c3.7-0.9,7.1-2.7,11.3-4.4c2.6,4.6,5.6,9.5,8.2,14.7c0.4,0.8-0.7,2.7-1.6,3.6c-7.3,7.2-16.2,7.6-25.5,5.6
		c-14.7-3-27.7-10.3-40.8-17.1c-9.3-4.8-18-10.8-28.5-12.7c-7.6-1.4-15.1-2.4-22.3,1.7c-6.8,3.8-10.5,13.6-7.3,22.4
		c1.4-6.8,5.5-10.4,10.3-13.9c5.8-4.3,11.6-3.8,17.4-1.9c6.6,2.1,13,5,19.3,8c12.7,6.2,25.1,13,38,18.9c16.2,7.4,26.2,6.6,41.1-4.6
		c1-0.8,2-1.7,4-3.3c2.9,6.1,7.1,11.6,7.8,17.5c0.4,3.1-4.6,7.8-8.2,10.3c-10.9,7.6-23.1,8.6-35,3c-13.8-6.5-26.9-14.6-40.7-21
		c-7.6-3.5-16.1-5-24.1-7.8c-5.4-1.8-10.1-0.5-14.8,1.8c-6.2,3-9.7,12-7.1,18.8c0.5-0.4,1.3-0.7,1.5-1.1c4.7-11,14.7-12.3,24-10.2
		c9.7,2.2,18.8,7.2,27.9,11.5c12.6,5.9,24.7,12.9,37.5,18.2c11.3,4.7,22.9,4.2,32.8-4.2C668.5,139.9,671.1,136.3,674.7,132.3z"/>
	<path class="st0" d="M288.7,362.2c-1.3-2.2-2.4-4.3-3.7-6.3c-0.6-1-1.5-1.9-2.3-2.8c-0.7,1.2-1.9,2.3-1.9,3.5
		c-0.5,9.1-3.6,17.4-8.6,26.8c-3.9-4.7-7.3-8.6-11.2-13.2c-0.6,2.1-1.1,4.3-1.7,6.5c-1.4,5.1-2.5,10.3-4.2,15.3
		c-2,5.6-4.1,5.9-7.7,1.3c-1.8-2.3-3.6-4.6-6.3-8.2c-1.5,11-3.3,20.8-9.7,29.6c-0.9-1.9-1.6-3.2-2.3-4.6c-2.7-5.5-8.4-7.6-13.7-4.6
		c-6.4,3.6-13.5,13.1-10.2,22.1c1,2.8,2.8,6,5.2,7.4c5.8,3.3,8.2,11.8,6.1,17.9c-1.1,3.3-1.6,6.8-2.5,10.2c-0.5,1.6-1.4,3.2-2.2,5
		c-1.4-0.8-2.5-1.1-3.1-1.8c-3.2-3.9-7.7-5.3-12.2-7c-6.3-2.4-8-9.7-3.4-16.8c3.6-5.5,2.7-10.2-0.2-15.3c-1.5-2.7-3.3-3.4-5.5-1.2
		c-5.2,5-11.2,9.6-9.3,18.4c0.8,3.9-1.4,6.8-5,8.1c-4.2,1.5-6.9,3.8-5.8,8.8c0.1,0.5-0.4,1.2-0.7,2c-3.8-0.2-6.3-1.7-7.8-5.2
		c-1.1-2.5-2.1-5.1-3.8-7.2c-3.9-4.8-3.5-10-1.3-15c2.3-5.1,6.8-8.1,12.7-8.2c8.1-0.1,8.2-0.1,11.3-7.8c1.1-2.7,2.2-5.5,3.6-8.9
		c-7-0.7-13.2-2.7-19,2.7c-2,1.9-5.3,2.3-8,3.3c-2.4,0.9-5.3,1.2-7.2,2.7c-3,2.3-4.7,0.9-6.1-1.3c-4.3-6.9,1.5-25.5,8.8-28.7
		c7.9-3.5,11.9-2,15.3,5.8c2,4.6,3.7,5.1,11.3,3c3.5-1,3.9-3.6,3.5-6.7c-0.3-2-0.3-4-0.8-5.9c-0.7-2.8-1.9-5.3-5.5-5.4
		c-7.2-0.3-10.7-3.8-13.6-10.4c-1.1-2.5-5.2-3.7-8.8-6c0.5-0.7,1.2-3.2,2.7-3.8c5.6-2.4,11.3-4.9,17.2-6c9.4-1.8,17.1,8.3,14.3,17.9
		c-1.9,6.1,1.1,11.8,7.4,13.3c1.4,0.3,3.5-0.6,4.9-1.6c12.7-8.7,24.4-18.7,34.8-30.1c9.8-10.8,19.4-21.7,29.3-32.4
		c1-1.1,2.9-2.1,4.1-1.9c10.3,1.7,20.2-0.2,30-3c3.9-1.1,4.8,0.1,5.2,3.8C302.7,335.5,298,349.1,288.7,362.2z"/>
	<path class="st0" d="M336.9,17.6c-4.3,3-8.9,5.6-12.7,9.1c-5.1,4.5-9.9,9.4-14.3,14.6c-3.6,4.4-7.7,7.5-13.1,9.3
		c-3.1,1-5.8,3.1-9.1,4.9c1.2,2.4,2.4,4.4,3.6,6.8c2.8-1.6,5.3-2.9,7.7-4.4c3.3-2.2,5.2-0.8,6.6,2.3c0.7,1.5,1.2,3.1,2,4.5
		c3.4,6.5,3.5,6.6-3,10.1c-2.6,1.4-3.3,3.2-1.5,5.6c6.7,9.3,8.4,20.3,9.6,31c1.1,9.7-0.4,19.7-1,29.6c-0.1,1.8-1.4,3.6-2.6,6.7
		c-1.3-5.7-2.6-9.8-3.1-14.1c-1.2-10.4-7.4-17.7-14.7-24c-5.8-5-12-9.4-14.2-18.3c-2.9,1.8-5.1,3.1-7.2,4.6
		c-2.9,2.2-5.6,3.1-7.9-0.8c-0.2-0.3-0.4-0.5-0.7-0.7c-6.9-8.2-6.9-8.3,1.9-14.2c0.9-0.6,1.7-1.4,2.6-2.1c-1.7-2.1-2.9-4.2-4.7-5.4
		c-1.1-0.7-3.2-0.4-4.7,0c-5.6,1.9-10.9,5-16.6,5.9c-10.5,1.6-21.3,1.8-31.9,2.8c-3.4,0.3-6.8,1.2-10.2,1.9c-0.3-0.4-0.7-0.8-1-1.1
		c2.8-3.4,5.2-7.4,8.5-10.2c10.2-8.4,20.4-17,31.4-24.3c8-5.3,17-9,25.8-12.9c22.2-9.8,45.7-14.9,69.4-19.2c1.6-0.3,3.3,0.4,5,0.6
		C336.9,16.7,336.9,17.1,336.9,17.6z"/>
	<path class="st0" d="M281.3,231c-4.3,1.6-6.5,7.4-12.1,3.5c-0.5-0.4-2.4,1.2-3.6,1.9c-2,1.3-3.9,2.6-7.2,4.9
		c0.2-4.4,0.4-7.1,0.4-9.8c0-2.2,0.3-4.6-0.5-6.7c-3-8.4-3.5-8.4-10.2-2.9c-0.7,0.5-1.7,0.7-2.5,0.9c-0.7-4.7-1.1-9.1-2.1-13.3
		c-0.4-1.8-2-3.3-3.5-5.7c-2.7,3.6-5.1,6.8-7.5,9.9c-2.3-9.1-4.4-17.3-13.5-20.4c-7.7-2.7-15.7-4.5-24.3-6.9
		c2.2-3.2,4.5-7.1,7.4-10.6c0.8-0.9,3-0.9,4.6-0.9c8.5-0.1,16-8.6,14.5-16.6c-0.2-1.1-1.4-1.9-2.2-2.9c-0.8,0.6-2.1,1.1-2.4,2
		c-2.4,5.9-7.4,6.9-13,7.4c-2.1,0.2-4.7,1.4-6.1,3c-2.5,2.8-3.5,1.7-4.5-0.9c-5.4-13.5,6.2-29.4,20.6-29.3
		c9.3,0.1,17.1,2.7,22.6,10.2c1.8,2.5,3.1,5.6,3.6,8.6c0.9,4.9,3.7,8,7.3,10.8c7.8,6.2,15.4,12.6,23.4,18.6
		c6.4,4.8,13,9.2,19.7,13.5c3.5,2.2,3.5,3.7,0.5,6.3c-4.1,3.5-8,7.4-11.9,11.2c-5.4,5.3-5.3,7,0.8,11.8
		C280.2,229,280.4,229.7,281.3,231z"/>
	<path class="st0" d="M493,37c-1.8,0-3.6,0.1-5.3,0c-4.7-0.3-6.6-3.3-4.7-7.5c1.1-2.4,2.5-4.8,4.3-6.7c2.9-3,6.3-2.8,8.7,0.3
		c2.7,3.4,4,2.4,5.4-1.1c2.8-7.1,4.5-8.1,11.9-6.6c-0.7,2-1.2,3.9-2.1,5.7c-4.4,8.9-8.8,17.9-13.2,26.8c-0.2,0.4-0.5,0.9-0.6,1.4
		c-1.1,3.4-1.1,8.2-3.4,9.8c-2,1.4-6.6-0.8-10-1.1c-20.3-1.9-40.5-4-60.8-5.6c-7.8-0.6-15.6,0-23.5,0.1c-3,0.1-4-1-4.3-4
		c-1.1-13.2-1-26.6-8-38.6c-1.3-2.3,0.1-3.5,2.4-3.5c4-0.1,6.6,1.9,7.6,5.8c0.4,1.5,0.6,3.1,1.6,3.2c3,0.5,7.8,0,8.8,1.6
		c2,3.4,2.7,8.1,2.4,12.1c-0.4,5-5.1,2.5-8.1,2.6c-0.2,0.5-0.4,1-0.6,1.5c2.8,2,5.4,4.3,8.3,6c9,5,22.6,3.7,28.7-2.9
		c1.1-1.2,1.2-3.4,1.8-5.1c-1.7,0-3.3-0.3-4.9-0.1c-2.1,0.2-4.4,1.6-6.2,1.1c-2.1-0.6-5.3-3.1-5.1-4.3c0.5-3.5,2-7.3,4.2-10
		c1-1.2,4.8-0.3,7.3,0.2c1.3,0.2,2.3,1.7,4.5,2.1c-0.4-1.7-0.7-3.5-1.3-5.2c-1.5-4.5-0.1-9,3.7-11.3c4.3-2.6,9.8-2.3,12.8,1.3
		c2.9,3.5,2.6,7.7,0.4,11.6c-0.6,1.1-1.2,2.2-1.6,4c4.8-1.8,10-6.9,13.9,0c2.3,4.1,0.3,8.3-2.8,11.8c-4.3,4.9-8.2,1.7-12.2-0.8
		c-1.3,6,4.1,10.6,13.7,12.3C481.8,46.7,491.8,44.3,493,37z"/>
	<path class="st0" d="M179.6,198.3c-1.1,2.3-2.4,4.7-3.3,7.3c-8.3,21.8-14.7,44.1-15.3,67.6c-0.2,8.3-1.1,16.6-0.7,24.9
		c0.7,13.2,1.9,26.5,3.4,39.7c0.6,5.2,0.6,9-5.4,10.7c-3.7,1.1-7.1,3.2-11.4,5.2c-0.8-4.8-1.6-8.8-2.1-12.8
		c-3.2-27.1-5.2-54.4-1.8-81.6c2.5-20.1,7.5-39.8,15.2-58.6c0.7-1.7,3.6-3.4,5.6-3.4C168.7,197.1,173.8,197.9,179.6,198.3z"/>
	<path class="st0" d="M508.2,566.1c3.1,5.1,5.9,9.6,9.1,14.9c-2,0.7-4.1,2-6.4,2.3c-18.3,2.7-36.6,5.5-55,7.6
		c-9.9,1.1-20,1.8-29.8,1c-16.6-1.3-33.1-3.9-49.7-5.9c-0.3,0-0.7-0.1-1-0.2c-0.6-0.2-3.4-13.3-2.8-13.5c2-0.7,4.3-1.3,6.5-1.1
		c10.1,1,20.1,3.2,30.1,3.4c17.3,0.4,34.8,0.6,52.1-0.8c14.8-1.2,29.4-4.7,44.1-7.2C506.6,566.5,507.9,566.2,508.2,566.1z"/>
	<path class="st0" d="M282.7,534.9c-4.4,3.8-8.1,7.6-12.5,10.3c-1.3,0.8-4.8-0.6-6.6-1.9c-9.8-7.6-19.6-15.2-29-23.3
		c-16.7-14.4-30.2-31.7-43.6-49c-0.7-0.9-1-2.1-1.7-3.7c6.7,1.1,12.6,2.7,16.9,7.7c2.3,2.6,4.6,3.9,8.3,2c1.2-0.6,4.3,0.5,5.3,1.8
		c13.5,17.5,30,31.9,47.3,45.4C271.7,527.9,276.8,530.9,282.7,534.9z"/>
	<path class="st0" d="M669.2,504.7c-1.3,1.4-2.3,3-3.7,4c-9.8,6.8-19.7,13.4-29.5,20.2c-2.9,2-4.5,1.3-6.4-1.5
		c-7.9-11.8-6.9-8.9,3.4-16c8.2-5.7,16.6-11,24.7-16.7c2.6-1.8,4.1-1.5,5.6,1C665.3,498.6,667.2,501.5,669.2,504.7z"/>
	<path class="st0" d="M210.4,127c3.4-3.8,5.6-7,8.4-9.5c8.6-7.8,17.2-15.5,26.1-23c1-0.9,4-1,4.9-0.2c3,2.7,5.6,6,8.4,9.2
		c-8.3,7.3-16.2,14.3-24.2,21.3c-2.4,2.1-5,5.9-7.5,5.9C221.8,130.7,216.9,128.6,210.4,127z"/>
	<path class="st0" d="M403.9,157c-15.5-6.4-29.1-0.1-42.9,4.7c-4.1,1.4-8.2,3.8-11.9-0.3c-4-4.4-7.4-9.1-4.8-15.6
		c1.3-3.5,2.5-7,4.1-11.7c2.4,3.8,3.8,6.6,5.6,9c5.7,7.3,13.6,7.4,21.7,6.3c5.6-0.8,11.1-1.8,16.7-2.7
		C399.4,145.6,403.5,149.1,403.9,157z"/>
	<path class="st0" d="M321.1,585.8c-8.3-0.1-11.3-2.7-12.7-10.4c-1.3-7.2,2.2-14.9,8.5-18.8c3.5-2.2,6.6-2.3,9.6,1.3
		c5.8,7.2,7,14.5,3.4,22.2C328,584.4,325,586.2,321.1,585.8z"/>
	<path class="st0" d="M352.4,594c-8.3-0.1-14.3-7.1-12.5-15.1c1.5-6.8,4.7-12.4,11.8-14.8c1.2-0.4,3.3-0.3,3.9,0.4
		c3,3.7,6.5,7.3,8.3,11.6C367.3,584.3,360.7,594.1,352.4,594z"/>
	<path class="st0" d="M170.1,190c-10.1-0.3-16-3.9-18.5-11.3c-2.2-6.3,0.6-12.5,6.6-14.6c7.6-2.6,14.3-0.1,16.5,6.5
		c1.2,3.7,2.3,7.6,2.7,11.5C178.2,189.4,177.2,190.2,170.1,190z"/>
	<path class="st0" d="M506.6,409.6c-2.3-2.7-4.6-4.6-5.8-7c-2.3-4.8-6.1-7.4-11-8.5c-11.4-2.3-22.8-4.4-34.1-6.7
		c-3.4-0.7-6.7-1.9-9.8-3.4c-1-0.5-1.2-2.5-1.8-3.7c1.2-0.4,2.3-1.1,3.5-1.2c19.6-1.4,37.3,5.2,54.6,13.3
		C507.6,395,509.1,400.6,506.6,409.6z"/>
	<path class="st0" d="M300.9,555.2c0.2,6.1-2.9,11-8.4,13.3c-4.1,1.7-9.8,0.4-12.8-3c-5.1-5.7-4.1-14.1,2.1-18.6
		c0.7-0.5,1.3-1.1,2.1-1.4c3.4-1.4,8.3-4.9,9.9-3.8C298,544.6,301.2,549.3,300.9,555.2z"/>
	<path class="st0" d="M193.4,108.8c8.3,0,12.4,5.1,10.9,13.4c-0.1,0.7-0.2,1.3-0.4,2c-4,14.3-4.4,14.2-17,7.5
		c-6.3-3.4-7.5-7.1-5.6-14.1C183.2,111.2,186.6,108.7,193.4,108.8z"/>
	<path class="st0" d="M186.4,149.3c-0.7,12.9-2.9,12.1-12.7,9.7c-9.1-2.3-12.7-9.9-10.9-16.5c2.1-7.6,10.1-11,16.7-6.6
		C184.3,139.1,186.7,143.5,186.4,149.3z"/>
	<path class="st0" d="M318.3,67.8c-1.7-4-3.7-7.8-5-11.8c-0.4-1.3,0.8-4,2-4.6c4.7-2.4,9.6-4.3,14.6-6.2c0.9-0.3,2.9-0.1,3.1,0.3
		c1.5,4.6,2.9,9.3,3.9,14.1c0.1,0.6-2,1.8-3.3,2.4c-2.4,1.2-4.8,2.1-7.3,3.1C323.9,65.9,321.6,66.6,318.3,67.8z"/>
	<path class="st0" d="M533.1,486c-9.8-3.1-13.8-21.4-7.4-32.3c3.5,4.1,7.1,8.2,10.5,12.5c0.5,0.7,0.8,1.9,0.7,2.7
		C535.8,474.5,534.5,480.1,533.1,486z"/>
	<path class="st0" d="M383.5,486.4c1.8-9,2.4-17.6,12.2-20.9c3.1,2.8,4.5,6.8,1.7,10.6C394,480.7,391.1,486.5,383.5,486.4z"/>
</g>
</svg>
